<svg width="279" height="279" viewBox="0 0 279 279" fill="none" xmlns="http://www.w3.org/2000/svg">
<rect width="279" height="279" fill="white"/>
<circle cx="139.761" cy="138" r="132" fill="#F58024"/>
<path d="M88.9121 188.392C87.6961 188.392 86.6561 187.976 85.7921 187.144C84.9601 186.28 84.5441 185.256 84.5441 184.072C84.5441 182.888 84.9761 181.864 85.8401 181C86.7041 180.136 87.7281 179.704 88.9121 179.704C90.0961 179.704 91.1201 180.136 91.9841 181C92.8801 181.864 93.3281 182.888 93.3281 184.072C93.3281 185.256 92.8961 186.28 92.0321 187.144C91.2001 187.976 90.1601 188.392 88.9121 188.392ZM92.8001 192.232V217H85.0241V192.232H92.8001Z" fill="black"/>
<path d="M115.988 217V213.784C115.188 214.808 114.132 215.624 112.82 216.232C111.54 216.84 110.164 217.144 108.692 217.144C107.188 217.144 105.764 216.824 104.42 216.184C103.076 215.512 101.908 214.616 100.916 213.496C99.9562 212.344 99.1882 211 98.6122 209.464C98.0362 207.928 97.7482 206.296 97.7482 204.568C97.7482 202.84 98.0362 201.224 98.6122 199.72C99.2202 198.184 100.036 196.856 101.06 195.736C102.116 194.616 103.348 193.736 104.756 193.096C106.164 192.424 107.668 192.088 109.268 192.088C110.548 192.088 111.764 192.344 112.916 192.856C114.068 193.368 115.06 194.104 115.892 195.064V182.68L123.668 181.48V217H115.988ZM105.38 204.616C105.38 206.344 105.94 207.8 107.06 208.984C108.212 210.136 109.62 210.712 111.284 210.712C112.212 210.712 113.06 210.552 113.828 210.232C114.596 209.88 115.284 209.384 115.892 208.744V200.392C115.284 199.784 114.58 199.32 113.78 199C113.012 198.648 112.18 198.472 111.284 198.472C109.588 198.472 108.18 199.064 107.06 200.248C105.94 201.4 105.38 202.856 105.38 204.616Z" fill="black"/>
<path d="M152.064 213.496C150.464 214.904 148.848 215.928 147.216 216.568C145.584 217.176 143.728 217.48 141.648 217.48C139.824 217.48 138.112 217.16 136.512 216.52C134.944 215.848 133.568 214.936 132.384 213.784C131.2 212.632 130.272 211.272 129.6 209.704C128.928 208.136 128.592 206.456 128.592 204.664C128.592 202.84 128.912 201.144 129.552 199.576C130.192 198.008 131.056 196.648 132.144 195.496C133.264 194.344 134.592 193.448 136.128 192.808C137.664 192.136 139.312 191.8 141.072 191.8C142.864 191.8 144.496 192.136 145.968 192.808C147.472 193.448 148.752 194.344 149.808 195.496C150.896 196.648 151.744 198.04 152.352 199.672C152.96 201.272 153.264 203.032 153.264 204.952V206.632H136.224C136.576 208.008 137.28 209.128 138.336 209.992C139.392 210.856 140.624 211.288 142.032 211.288C143.056 211.288 143.984 211.112 144.816 210.76C145.68 210.408 146.384 209.896 146.928 209.224L152.064 213.496ZM141.024 197.848C139.808 197.848 138.784 198.232 137.952 199C137.12 199.768 136.544 200.84 136.224 202.216H146.064C145.744 200.872 145.136 199.816 144.24 199.048C143.344 198.248 142.272 197.848 141.024 197.848Z" fill="black"/>
<path d="M165.494 217.384C162.998 217.384 160.95 216.696 159.35 215.32C157.75 213.912 156.95 212.104 156.95 209.896C156.95 207.624 157.798 205.864 159.494 204.616C161.19 203.336 163.558 202.696 166.598 202.696C167.494 202.696 168.406 202.792 169.334 202.984C170.262 203.144 171.27 203.432 172.358 203.848V201.832C172.358 200.648 171.942 199.752 171.11 199.144C170.31 198.536 169.094 198.232 167.462 198.232C166.534 198.232 165.494 198.376 164.342 198.664C163.222 198.92 161.942 199.352 160.502 199.96L157.814 194.536C159.83 193.64 161.766 192.968 163.622 192.52C165.51 192.072 167.366 191.848 169.19 191.848C172.614 191.848 175.27 192.664 177.158 194.296C179.078 195.928 180.038 198.216 180.038 201.16V217H172.358V214.84C171.27 215.736 170.182 216.392 169.094 216.808C168.006 217.192 166.806 217.384 165.494 217.384ZM164.102 209.752C164.102 210.552 164.438 211.176 165.11 211.624C165.782 212.04 166.71 212.248 167.894 212.248C168.694 212.248 169.462 212.152 170.198 211.96C170.966 211.736 171.686 211.416 172.358 211V207.832C171.654 207.672 170.934 207.544 170.198 207.448C169.494 207.352 168.79 207.304 168.086 207.304C166.806 207.304 165.814 207.512 165.11 207.928C164.438 208.344 164.102 208.952 164.102 209.752Z" fill="black"/>
<path d="M183.883 214.456L187.291 209.272C189.051 210.2 190.523 210.856 191.707 211.24C192.891 211.592 194.075 211.768 195.259 211.768C196.347 211.768 197.211 211.592 197.851 211.24C198.491 210.856 198.811 210.36 198.811 209.752C198.811 209.272 198.619 208.888 198.235 208.6C197.883 208.312 197.307 208.104 196.507 207.976L191.755 207.112C189.355 206.664 187.531 205.832 186.283 204.616C185.067 203.4 184.459 201.832 184.459 199.912C184.459 197.384 185.371 195.4 187.195 193.96C189.051 192.52 191.595 191.8 194.827 191.8C196.555 191.8 198.267 192.04 199.963 192.52C201.659 193 203.307 193.704 204.907 194.632L201.355 199.576C200.107 198.872 198.891 198.344 197.707 197.992C196.555 197.64 195.403 197.464 194.251 197.464C193.323 197.464 192.587 197.624 192.043 197.944C191.531 198.232 191.275 198.648 191.275 199.192C191.275 199.704 191.451 200.088 191.803 200.344C192.187 200.6 192.859 200.808 193.819 200.968L198.475 201.832C200.907 202.28 202.763 203.128 204.043 204.376C205.323 205.592 205.947 207.128 205.915 208.984C205.915 210.2 205.643 211.336 205.099 212.392C204.587 213.416 203.851 214.312 202.891 215.08C201.931 215.816 200.795 216.408 199.483 216.856C198.171 217.272 196.763 217.48 195.259 217.48C193.019 217.48 190.923 217.224 188.971 216.712C187.019 216.2 185.323 215.448 183.883 214.456Z" fill="black"/>
<path d="M44.8055 160.928L44.1305 111.232L56.3414 111.066L56.6037 130.377L76.6948 130.104L76.4325 110.794L88.6434 110.628L89.3184 160.323L77.1075 160.489L76.8404 140.824L56.7493 141.097L57.0164 160.762L44.8055 160.928Z" fill="white"/>
<path d="M94.2663 160.256L112.972 110.297L126.887 110.108L146.659 159.544L133.455 159.724L129.176 147.924L111.002 148.17L106.974 160.083L94.2663 160.256ZM114.21 138.683L125.782 138.526L119.808 122.133L114.21 138.683Z" fill="white"/>
<path d="M173.997 148.948C176.222 148.918 178.274 148.369 180.153 147.302C182.032 146.235 183.738 144.674 185.272 142.617L193.398 150.105C191.259 152.974 188.403 155.308 184.83 157.109C181.257 158.909 177.554 159.835 173.72 159.887C170.028 159.937 166.564 159.321 163.328 158.04C160.091 156.758 157.298 154.997 154.948 152.757C152.598 150.517 150.716 147.844 149.301 144.739C147.933 141.633 147.225 138.282 147.176 134.685C147.127 131.088 147.744 127.719 149.027 124.577C150.356 121.387 152.165 118.641 154.454 116.337C156.789 114.033 159.533 112.197 162.687 110.829C165.887 109.46 169.333 108.751 173.025 108.7C177 108.646 180.822 109.47 184.49 111.172C188.158 112.874 191.101 115.177 193.318 118.082L185.189 126.003C183.55 123.848 181.706 122.239 179.656 121.178C177.652 120.07 175.491 119.531 173.172 119.562C171.232 119.589 169.438 119.992 167.792 120.772C166.146 121.551 164.716 122.612 163.504 123.954C162.338 125.248 161.413 126.823 160.728 128.678C160.09 130.486 159.785 132.431 159.813 134.513C159.841 136.596 160.223 138.531 160.957 140.32C161.691 142.109 162.683 143.658 163.931 144.966C165.227 146.227 166.731 147.224 168.445 147.958C170.159 148.645 172.01 148.975 173.997 148.948Z" fill="white"/>
<path d="M200.952 158.807L200.277 109.111L212.488 108.945L212.781 130.527L231.017 108.694L245.571 108.496L224.164 132.148L247.524 158.174L231.55 158.391L212.856 136.065L213.163 158.641L200.952 158.807Z" fill="white"/>
</svg>
